<svg viewBox="0 -17 512.00007 512" xmlns="http://www.w3.org/2000/svg"><path d="m402.019531 199.519531-4.28125 56.410157-12.757812 168.398437-2.839844 37.433594c-.390625 5.207031-4.742187 9.238281-9.972656 9.238281h-228.320313c-5.226562 0-9.566406-4.03125-9.96875-9.238281l-2.839844-37.433594-12.738281-168.019531-4.300781-56.789063zm0 0" fill="#ead2c1"/><path d="m402.019531 199.519531-4.28125 56.410157c-5.789062-.789063-11.480469-2.078126-17.039062-3.839844-29.699219 36.738281-74.710938 58.511718-122.179688 58.660156h-.519531c-47.832031 0-93.082031-21.859375-122.902344-58.941406-5.46875 1.980468-11.089844 3.480468-16.796875 4.5l-4.300781-56.789063zm0 0" fill="#d6bdac"/><path d="m384.980469 424.332031-2.839844 37.425781c-.394531 5.214844-4.738281 9.242188-9.96875 9.242188h-228.316406c-5.230469 0-9.578125-4.027344-9.972657-9.242188l-2.839843-37.425781zm0 0" fill="#f72d2d"/><path d="m411.902344 60.332031c-12.757813.039063-24.902344 2.667969-35.9375 7.382813-26.558594-36.613282-69.734375-60.371094-118.421875-60.214844-49.289063.160156-92.769531 24.789062-119 62.347656-11.867188-5.5-25.097657-8.554687-39.039063-8.507812-50.976562.164062-92.167968 41.621094-92.003906 92.59375.164062 50.976562 41.621094 92.167968 92.597656 92.003906 13.941406-.046875 27.152344-3.1875 38.984375-8.761719 26.46875 37.386719 70.113281 61.738281 119.402344 61.578125 48.683594-.15625 91.707031-24.191406 118.03125-60.976562 11.066406 4.644531 23.226563 7.195312 35.984375 7.152344 50.972656-.164063 92.164062-41.621094 92-92.59375-.164062-50.976563-41.621094-92.167969-92.597656-92.003907zm0 0" fill="#fff0d0"/><path d="m393.261719 315.066406c-4.125-.3125-7.730469 2.78125-8.042969 6.914063l-7.191406 94.851562h-240.03125l-5.941406-78.355469c-.3125-4.128906-3.902344-7.214843-8.042969-6.910156-4.128907.3125-7.226563 3.914063-6.914063 8.042969l9.304688 122.714844c.6875 9.070312 8.355468 16.175781 17.453125 16.175781h228.316406c9.09375 0 16.761719-7.105469 17.449219-16.175781l10.554687-139.210938c.3125-4.132812-2.78125-7.734375-6.914062-8.046875zm-21.089844 148.433594h-228.316406c-1.300781 0-2.394531-1.015625-2.492188-2.3125l-2.226562-29.355469h237.753906l-2.226563 29.355469c-.097656 1.296875-1.195312 2.3125-2.492187 2.3125zm0 0"/><path d="m493.246094 94.382812c-2.417969-3.363281-7.105469-4.125-10.46875-1.707031-3.363282 2.421875-4.125 7.109375-1.703125 10.46875 10.359375 14.394531 15.867187 31.414063 15.925781 49.214844.074219 22.648437-8.679688 43.972656-24.644531 60.039063-15.964844 16.070312-37.230469 24.960937-59.882813 25.03125-8.355468.023437-16.546875-1.160157-24.4375-3.503907 14.632813-23.464843 23.105469-51.15625 23.105469-80.792969 0-4.140624-3.359375-7.5-7.5-7.5-4.144531 0-7.5 3.359376-7.5 7.5 0 76.164063-61.964844 138.128907-138.128906 138.128907-76.164063 0-138.125-61.964844-138.125-138.128907 0-4.140624-3.359375-7.5-7.5-7.5-4.144531 0-7.5 3.359376-7.5 7.5 0 29.535157 8.410156 57.136719 22.953125 80.550782-8.882813 3.121094-18.1875 4.722656-27.765625 4.75-.09375 0-.1875 0-.28125 0-22.546875 0-43.761719-8.746094-59.761719-24.640625-16.066406-15.96875-24.957031-37.234375-25.03125-59.882813-.070312-22.652344 8.679688-43.976562 24.644531-60.042968 15.964844-16.066407 37.230469-24.957032 59.882813-25.03125h.285156c12.414062 0 24.386719 2.628906 35.578125 7.816406 3.300781 1.523437 7.222656.46875 9.304687-2.511719 25.757813-36.886719 67.957032-58.996094 112.875-59.140625h.441407c44.125 0 85.921875 21.332031 111.886719 57.117188 2.054687 2.835937 5.796874 3.871093 9.015624 2.496093 10.445313-4.464843 21.554688-6.746093 33.015626-6.78125 16.972656-.085937 33.402343 4.898438 47.453124 14.324219 3.4375 2.308594 8.097657 1.390625 10.40625-2.050781 2.308594-3.4375 1.390626-8.097657-2.046874-10.40625-16.457032-11.039063-35.648438-16.871094-55.53125-16.871094-.109376 0-.21875 0-.328126 0-11.492187.039063-22.683593 1.996094-33.355468 5.828125-28.957032-36.859375-73.542969-58.65625-120.519532-58.65625-.160156 0-.328124 0-.488281 0-47.757812.15625-92.734375 22.699219-121.523437 60.609375-11.621094-4.539063-23.921875-6.796875-36.515625-6.769531-26.660157.085937-51.6875 10.546875-70.476563 29.457031-18.789062 18.910156-29.0898435 44.003906-29.003906 70.664063.0859375 26.65625 10.546875 51.683593 29.457031 70.472656 18.835938 18.710937 43.796875 29.003906 70.332031 29.003906h.332032c3.5-.011719 6.96875-.207031 10.402344-.570312l3.984374 52.566406c.300782 3.9375 3.585938 6.933594 7.472657 6.933594.191406 0 .382812-.003907.574219-.019532 4.128906-.3125 7.226562-3.914062 6.914062-8.046875l-4.105469-54.167969c3.824219-1.015624 7.589844-2.257812 11.292969-3.734374 7.144531 9.277343 15.324219 17.71875 24.371094 25.144531l5.570312 86.046875c.257813 3.96875 3.554688 7.015625 7.476563 7.015625.164062 0 .328125-.007813.492187-.015625 4.132813-.269532 7.265625-3.835938 7-7.972656l-4.773437-73.730469c21.570312 13.550781 46.738281 21.882812 73.722656 23.1875v82.273437c0 4.140625 3.355469 7.5 7.5 7.5 4.140625 0 7.5-3.359375 7.5-7.5v-82.273437c26.980469-1.304688 52.148437-9.636719 73.71875-23.1875l-5.964844 92.171875c-.269531 4.132812 2.867188 7.699218 7 7.96875.164063.011718.328125.015625.492188.015625 3.921875 0 7.21875-3.046875 7.476562-7.015625l6.761719-104.488282c8.917969-7.316406 16.996094-15.625 24.070312-24.746093 3.804688 1.339843 7.671876 2.445312 11.597657 3.308593l-2.859375 37.699219c-.3125 4.128907 2.78125 7.730469 6.914062 8.046875.191406.011719.382813.019532.574219.019532 3.882813 0 7.171875-2.996094 7.46875-6.933594l2.785156-36.726563c2.203125.144531 4.414063.222657 6.640625.222657h.332032c26.65625-.085938 51.683593-10.546876 70.472656-29.457032 18.789062-18.910156 29.089844-44.007812 29.003906-70.664062-.070312-20.949219-6.554688-40.980469-18.753906-57.925782zm0 0"/></svg>