<svg height="511pt" viewBox="0 -45 511.99816 511" width="511pt" xmlns="http://www.w3.org/2000/svg"><path d="m419.019531 78.070312c9.683594-22.417968 31.992188-38.109374 57.964844-38.109374 8.714844 0 17.015625 1.765624 24.566406 4.957031v-28.167969c-9.152343-3.867188-20.519531-5.800781-31.082031-5.800781-31.480469 0-58.519531 19.015625-70.257812 46.191406zm0 0" fill="#3e9c06"/><path d="m299.378906 93.6875c-55.832031 48.101562-106.710937 221.578125-204.800781 313.707031 87.863281-14.324219 201.746094-65.789062 311.84375-198.304687 33.613281-40.453125 39.5625-96.179688 8.742187-136.277344-37.355468-16.328125-82.34375-7.9375-115.785156 20.875zm0 0" fill="#ef0000"/><path d="m423.574219 85.796875c-4.417969-8.160156-10.097657-15.878906-17.152344-22.933594-40.378906-40.378906-102.964844-37.273437-146.226563 0-2.761718 2.375-5.507812 5.066407-8.25 8.03125l-.15625 1.011719h82.722657l-.261719 1.597656c30.222656-9.46875 62.859375-6.011718 89.324219 12.292969zm0 0" fill="#fff"/><path d="m323.648438 137.535156 1.472656-.410156-1.253906-.910156zm0 0" fill="#3e9c06"/><path d="m415.472656 190.566406 4.875-1.871094c18.089844-32.804687 20.367188-71.214843 3.226563-102.898437-26.464844-18.308594-59.101563-21.761719-89.324219-12.292969l-10.382812 62.710938 1.253906.910156 68.328125-19.085938zm0 0" fill="#3e9c06"/><path d="m167.988281 311.972656c-2.21875 0-4.453125-.703125-6.34375-2.15625-4.570312-3.511718-5.449219-10.035156-1.949219-14.613281.003907-.003906.074219-.09375.078126-.097656 3.511718-4.574219 10.074218-5.441407 14.648437-1.933594 4.578125 3.511719 5.449219 10.058594 1.941406 14.636719-.007812.011718-.050781.070312-.058593.082031-2.066407 2.675781-5.175782 4.082031-8.316407 4.082031zm0 0"/><path d="m185.351562 284.917969c-1.726562 0-3.480468-.429688-5.09375-1.332031-5.035156-2.816407-6.835937-9.183594-4.019531-14.21875 7.671875-13.714844 15.363281-29.363282 23.503907-45.929688 16.652343-33.890625 35.527343-72.292969 53.355468-89.535156l.144532-.140625c4.070312-4.09375 10.683593-4.109375 14.777343-.039063 4.089844 4.070313 4.109375 10.683594.039063 14.777344-.144532.140625-.285156.28125-.429688.417969-15.210937 14.714843-34.015625 52.980469-49.128906 83.730469-8.269531 16.828124-16.078125 32.71875-24.023438 46.917968-1.910156 3.421875-5.464843 5.351563-9.125 5.351563zm0 0"/><path d="m505.621094 7.128906c-10.105469-4.277344-22.589844-6.628906-35.152344-6.628906-30.332031 0-58.078125 15.71875-73.792969 40.941406-18.308593-12.144531-39.859375-18.5-62.441406-18.148437-28.953125.433593-57.667969 11.671875-80.859375 31.652343-26.054688 22.445313-49.941406 68.382813-77.597656 121.570313-41.890625 80.558594-94.019532 180.816406-170.535156 224.816406-3.925782 2.257813-5.953126 6.789063-5.015626 11.21875.933594 4.429688 4.617188 7.753907 9.121094 8.230469 8.082032.859375 18.304688 1.539062 30.378906 1.539062 36.019532 0 88.503907-6.066406 149.667969-31.640624 81.078125-33.898438 156.800781-92.746094 225.0625-174.910157 35.261719-42.441406 40.707031-96.792969 16.449219-138.203125 9.214844-16.648437 26.777344-27.15625 46.078125-27.15625 7.113281 0 14.007813 1.390625 20.496094 4.132813 3.226562 1.367187 6.921875 1.023437 9.839843-.914063 2.921876-1.9375 4.679688-5.207031 4.679688-8.710937v-28.167969c0-4.195312-2.511719-7.988281-6.378906-9.621094zm-169.96875 36.839844c23.308594 0 45.855468 8.757812 63.382812 26.28125 25.257813 25.261719 31.878906 61.765625 19.972656 96l-15.5625-51.246094c-1.648437-5.433594-7.335937-8.554687-12.808593-7.027344l-54 15.082032 8.183593-49.445313c.503907-3.03125-.351562-6.125-2.335937-8.464843-1.988281-2.34375-4.902344-3.691407-7.96875-3.691407h-55.144531c17.730468-11.648437 37.257812-17.488281 56.28125-17.488281zm-154.316406 327.429688c-56.652344 23.6875-105.167969 29.738281-138.949219 30.023437 67.105469-52.140625 113.671875-141.683594 151.933593-215.261719 22.316407-42.921875 42.085938-80.929687 61.425782-103.804687h66.445312l-8.851562 53.472656c-.582032 3.523437.671875 7.101563 3.332031 9.484375 2.65625 2.386719 6.347656 3.246094 9.789063 2.285156l59.957031-16.746094 18.925781 62.316407c-2.148438 3.140625-4.453125 6.230469-6.960938 9.246093-66.085937 79.542969-139.113281 136.398438-217.046874 168.984376zm309.765624-340.539063c-4.617187-.894531-9.332031-1.347656-14.117187-1.347656-23.757813 0-45.640625 11.398437-59.308594 30.027343-1.246093-1.378906-2.535156-2.734374-3.867187-4.066406-.242188-.242187-.496094-.480468-.742188-.726562 11.65625-20.46875 33.472656-33.347656 57.402344-33.347656 7.128906 0 14.339844.980468 20.632812 2.761718zm0 0"/></svg>