<?xml version="1.0" encoding="iso-8859-1"?>
<!-- Generator: Adobe Illustrator 19.0.0, SVG Export Plug-In . SVG Version: 6.00 Build 0)  -->
<svg version="1.1" id="Capa_1" xmlns="http://www.w3.org/2000/svg" xmlns:xlink="http://www.w3.org/1999/xlink" x="0px" y="0px"
	 viewBox="0 0 511.999 511.999" style="enable-background:new 0 0 511.999 511.999;" xml:space="preserve">
<path style="fill:#6DC82A;" d="M255.753,53.993c-1.573,3.938-3.286,7.815-5.16,11.622c-15.45,31.681-40.668,58.572-71.437,75.785
	c-22.383,12.524-48.894,19.878-75.435,21.652c-13.506,0.902-27.012,0.361-39.977-1.673c-2.204-0.341-3.126-3.036-1.583-4.659
	c3.216-3.376,6.192-6.983,8.907-10.781c17.083-23.946,25.79-55.837,48.152-76.848c16.321-15.339,37.171-24.407,59.204-27.653
	c17.664-2.605,35.819-1.663,53.332,1.633l22.263,7.264C255.542,50.827,256.344,52.51,255.753,53.993z"/>
<path style="fill:#7ED63E;" d="M250.593,65.616c-15.45,31.681-40.668,58.572-71.437,75.785
	c-22.383,12.524-48.894,19.878-75.435,21.652c14.237-22.894,23.285-50.878,43.554-69.914c16.321-15.339,37.171-24.407,59.204-27.653
	C221.066,63.331,235.985,63.602,250.593,65.616z"/>
<path style="fill:#EEBF00;" d="M453.633,287.362c0,74.733-35.047,139.127-85.514,168.383c-10.4,6.042-18.415,15.319-23.726,26.12
	c-3.928,7.995-10.58,14.518-18.806,18.486c-5.571,2.695-11.863,4.208-18.536,4.208c-16.502,0-30.749-9.288-37.342-22.694
	c-5.31-10.801-13.326-20.079-23.726-26.12c-50.467-29.256-85.514-93.65-85.514-168.383c0-74.884,35.178-139.378,85.795-168.564
	c10.29-5.931,18.245-15.079,23.545-25.719c6.623-13.316,20.81-22.513,37.242-22.513c6.663,0,12.965,1.513,18.536,4.198
	c8.166,3.948,14.768,10.4,18.706,18.315c5.3,10.64,13.255,19.788,23.545,25.719C418.455,147.984,453.633,212.479,453.633,287.362z"
	/>
<path style="fill:#FFD422;" d="M453.633,287.362c0,74.733-35.047,139.127-85.514,168.383c-10.4,6.042-18.415,15.319-23.726,26.12
	c-3.928,7.995-10.58,14.518-18.806,18.486c-8.226-3.968-14.879-10.49-18.806-18.486c-5.31-10.801-13.326-20.079-23.726-26.12
	c-50.467-29.256-85.514-93.65-85.514-168.383c0-74.884,35.178-139.378,85.795-168.564c10.29-5.931,18.245-15.079,23.545-25.719
	c3.938-7.915,10.54-14.368,18.706-18.315c8.166,3.948,14.768,10.4,18.706,18.315c5.3,10.64,13.255,19.788,23.545,25.719
	C418.455,147.984,453.633,212.479,453.633,287.362z"/>
<path d="M389.217,430.638c-7.762,7.282-16.127,13.544-24.864,18.61c-11.252,6.526-20.486,16.657-26.702,29.3
	c-12.061,24.529-49.065,24.672-61.198,0c-6.217-12.643-15.451-22.776-26.703-29.301c-66.615-38.627-99.126-137.582-72.493-225.734
	c1.199-3.973-1.048-8.167-5.021-9.367c-3.973-1.196-8.166,1.047-9.367,5.021c-17.025,56.355-12.15,120.928,14.763,172.897
	c15.851,30.61,38.182,54.879,64.578,70.185c8.676,5.032,15.853,12.961,20.756,22.932c17.561,35.71,70.56,35.808,88.171,0
	c11.632-23.661,22.975-19.761,48.364-43.583c3.027-2.839,3.178-7.596,0.339-10.621C396.999,427.951,392.244,427.798,389.217,430.638
	z"/>
<path d="M371.595,112.293c-8.565-4.939-15.678-12.742-20.57-22.567c-6.973-14-20.805-23.714-36.459-26.1V7.494
	c0-7.822-10.592-10.429-14.217-3.407c-0.631,1.242-13.706,26.04-46.058,38.434c-21.219-6.902-20.285-6.673-21.141-6.833
	c-20.194-3.798-40.346-4.444-59.955-1.012c-4.088,0.741-6.803,4.649-6.062,8.727c0.731,4.088,4.629,6.803,8.727,6.072
	c25.933-4.715,48.431,0.327,54.284,0.972l16.672,5.44c-28.762,66.005-96.634,107.052-173.253,99.19
	c26.608-32.994,29.013-75.414,75.555-97.197c3.757-1.753,5.38-6.232,3.627-9.989c-1.763-3.757-6.232-5.38-9.989-3.617
	c-57.131,26.718-55.728,78.911-89.502,110.713c-4.455,4.194-2.282,11.688,3.737,12.845c85.537,16.34,173.769-28.23,206.416-112.787
	c16.241-6.903,28.044-16.522,36.129-25.018v33.598c-15.653,2.387-29.486,12.1-36.459,26.101
	c-4.892,9.824-12.005,17.628-20.57,22.566c-28.801,16.607-52.503,43.512-68.544,77.805c-1.758,3.759-0.136,8.232,3.623,9.99
	c3.762,1.759,8.233,0.136,9.991-3.623c14.727-31.489,36.318-56.094,62.436-71.155c11.134-6.42,20.304-16.409,26.517-28.886
	c9.531-19.132,30.868-18.446,30.521-18.346c0.009,0,0.017-0.001,0.026-0.001c12.979,0.01,24.946,7.209,30.494,18.347
	c6.214,12.478,15.384,22.466,26.518,28.886c86.548,49.907,110.072,194.556,44.121,283.871c-3.692,4.999-0.037,11.979,6.039,11.979
	c2.303,0,4.577-1.056,6.051-3.051C491.13,322.188,466.511,167.021,371.595,112.293z"/>
<g>
</g>
<g>
</g>
<g>
</g>
<g>
</g>
<g>
</g>
<g>
</g>
<g>
</g>
<g>
</g>
<g>
</g>
<g>
</g>
<g>
</g>
<g>
</g>
<g>
</g>
<g>
</g>
<g>
</g>
</svg>
