<?xml version="1.0" encoding="iso-8859-1"?>
<!-- Generator: Adobe Illustrator 19.0.0, SVG Export Plug-In . SVG Version: 6.00 Build 0)  -->
<svg version="1.1" id="Layer_1" xmlns="http://www.w3.org/2000/svg" xmlns:xlink="http://www.w3.org/1999/xlink" x="0px" y="0px"
	 viewBox="0 0 511.998 511.998" style="enable-background:new 0 0 511.998 511.998;" xml:space="preserve">
<path style="fill:#3E9C06;" d="M419.021,122.659c9.682-22.419,31.992-38.11,57.965-38.11c8.713,0,17.015,1.766,24.565,4.959V61.34
	c-9.151-3.87-20.52-5.803-31.081-5.803c-31.482,0-58.521,19.018-70.258,46.193L419.021,122.659z"/>
<path style="fill:#EF0000;" d="M406.422,107.451c-40.38-40.38-102.964-37.274-146.228,0
	C196.409,162.405,139.086,381.004,10.45,454.98c88.628,9.405,245.821-20.577,395.972-201.3
	C442.915,209.756,446.802,147.831,406.422,107.451z"/>
<path style="fill:#3E9C06;" d="M406.422,107.451c-40.38-40.38-102.964-37.274-146.228,0c-2.76,2.377-5.507,5.068-8.247,8.032
	l-0.158,1.01h82.724l-10.865,65.631l69.8-19.496l22.024,72.524l4.875-1.869C443.096,192.028,440.871,141.901,406.422,107.451z"/>
<path d="M167.988,356.561c-2.219,0-4.452-0.701-6.344-2.156c-4.569-3.512-5.451-10.036-1.948-14.612
	c0.003-0.004,0.073-0.095,0.076-0.099c3.513-4.574,10.074-5.442,14.649-1.933c4.577,3.51,5.449,10.058,1.942,14.638
	c-0.008,0.01-0.053,0.07-0.062,0.08C174.24,355.153,171.129,356.561,167.988,356.561z"/>
<path d="M185.35,329.505c-1.726,0-3.477-0.429-5.092-1.331c-5.036-2.817-6.836-9.185-4.019-14.22
	c7.672-13.714,15.361-29.363,23.502-45.928c16.655-33.891,35.527-72.294,53.357-89.535l0.143-0.141
	c4.07-4.092,10.686-4.11,14.777-0.04c4.092,4.07,4.11,10.686,0.04,14.777c-0.142,0.142-0.284,0.283-0.427,0.421
	c-15.214,14.712-34.019,52.979-49.13,83.727c-8.27,16.829-16.079,32.72-24.022,46.92
	C192.565,327.579,189.011,329.505,185.35,329.505z"/>
<path d="M505.621,51.717c-10.105-4.275-22.59-6.629-35.151-6.629c-30.333,0-58.078,15.718-73.796,40.941
	c-18.307-12.145-39.857-18.5-62.44-18.146c-28.952,0.431-57.669,11.671-80.86,31.652c-26.053,22.445-49.939,68.381-77.597,121.57
	C133.888,301.663,81.756,401.92,5.24,445.922c-3.925,2.258-5.95,6.787-5.014,11.217c0.935,4.43,4.617,7.754,9.121,8.232
	c8.081,0.858,18.306,1.539,30.381,1.539c36.018,0,88.501-6.068,149.667-31.642c81.077-33.899,156.799-92.747,225.063-174.91
	c35.261-42.441,40.706-96.793,16.447-138.204c9.215-16.648,26.78-27.157,46.08-27.157c7.114,0,14.009,1.391,20.495,4.135
	c3.227,1.366,6.923,1.023,9.843-0.914c2.921-1.936,4.676-5.206,4.676-8.709V61.34C512,57.143,509.487,53.352,505.621,51.717z
	 M335.653,88.559c23.309,0,45.855,8.756,63.38,26.281c25.26,25.26,31.881,61.765,19.974,95.999l-15.562-51.246
	c-1.65-5.433-7.338-8.556-12.808-7.028l-54.001,15.083l8.186-49.448c0.502-3.028-0.354-6.124-2.34-8.465
	c-1.985-2.342-4.9-3.691-7.968-3.691H279.37C297.103,94.396,316.631,88.559,335.653,88.559z M181.335,415.988
	c-56.652,23.687-105.168,29.738-138.948,30.023c67.106-52.142,113.671-141.684,151.932-215.264
	c22.317-42.918,42.086-80.928,61.429-103.804h66.445l-8.853,53.475c-0.583,3.523,0.673,7.099,3.331,9.485
	c2.658,2.385,6.35,3.245,9.789,2.286l59.959-16.747l18.924,62.315c-2.148,3.141-4.453,6.232-6.958,9.246
	C332.296,326.547,259.27,383.403,181.335,415.988z M491.102,75.449c-4.618-0.898-9.333-1.35-14.117-1.35
	c-23.761,0-45.641,11.401-59.309,30.027c-1.248-1.378-2.536-2.733-3.866-4.064c-0.246-0.246-0.497-0.484-0.745-0.726
	c11.659-20.472,33.472-33.35,57.404-33.35c7.127,0,14.339,0.982,20.633,2.761L491.102,75.449L491.102,75.449z"/>
<g>
</g>
<g>
</g>
<g>
</g>
<g>
</g>
<g>
</g>
<g>
</g>
<g>
</g>
<g>
</g>
<g>
</g>
<g>
</g>
<g>
</g>
<g>
</g>
<g>
</g>
<g>
</g>
<g>
</g>
</svg>
